<?xml version="1.0" encoding="UTF-8" standalone="no"?>
<!DOCTYPE svg PUBLIC "-//W3C//DTD SVG 20010904//EN"
              "http://www.w3.org/TR/2001/REC-SVG-20010904/DTD/svg10.dtd">

<svg xmlns="http://www.w3.org/2000/svg"
     width="1.38889in" height="1.38889in"
     viewBox="0 0 100 100">
  <path id="Selection"
        fill="none" stroke="black" stroke-width="1"
        d="M 100.00,0.00
           C 100.00,0.00 100.00,20.00 100.00,20.00
             100.00,20.00 80.00,20.00 80.00,20.00
             80.00,20.00 80.00,100.00 80.00,100.00
             80.00,100.00 60.00,100.00 60.00,100.00
             60.00,100.00 60.00,20.00 60.00,20.00
             60.00,20.00 40.00,20.00 40.00,20.00
             40.00,20.00 40.00,100.00 40.00,100.00
             40.00,100.00 20.00,100.00 20.00,100.00
             20.00,100.00 20.00,20.00 20.00,20.00
             20.00,20.00 0.00,20.00 0.00,20.00
             0.00,20.00 0.00,0.00 0.00,0.00
             0.00,0.00 100.00,0.00 100.00,0.00 Z" />
</svg>
